# xmcd
#
# Track frame offsets:
#	150
#	13343
#	28209
#	41296
#	59437
#	73605
#	89892
#	100777
#	113219
#	126174
#	155417
#	170046
#	188722
#
# Disc length: 2655 seconds
#
# Revision: 6
# Processed by: cddbd v1.5.2PL0 Copyright (c) Steve Scherf et al.
# Submitted via: audiograbber 1.83.01
#
DISCID=b70a5d0d
DTITLE=Burch, Paul - Last of my kind
DYEAR=2001
DGENRE=Country
TTITLE0=Aliceville rag
TTITLE1=Up on the mountain
TTITLE2=Livin' up to the man you see in me
TTITLE3=Harvey Hartsell's farm
TTITLE4=Mama shoo'd the blackbirds
TTITLE5=Going to the carnival
TTITLE6=Country boys in a city alley
TTITLE7=Sun don't shine
TTITLE8=Electricity
TTITLE9=Polio
TTITLE10=Amos's blues
TTITLE11=Last of my kind
TTITLE12=Nightjar
EXTD=
EXTT0=
EXTT1=
EXTT2=
EXTT3=
EXTT4=
EXTT5=
EXTT6=
EXTT7=
EXTT8=
EXTT9=
EXTT10=
EXTT11=
EXTT12=
PLAYORDER=
